<svg width="24" height="24" viewBox="0 0 24 24" fill="none" xmlns="http://www.w3.org/2000/svg">
<path fill-rule="evenodd" clip-rule="evenodd" d="M7 0L5.17001 2H2C0.899994 2 0 2.8999 0 4V16C0 17.1001 0.899994 18 2 18H18C19.1 18 20 17.1001 20 16V4C20 2.8999 19.1 2 18 2H14.83L13 0H7ZM10 15C7.23999 15 5 12.7598 5 10C5 7.24023 7.23999 5 10 5C12.76 5 15 7.24023 15 10C15 12.7598 12.76 15 10 15ZM13.2 10C13.2 11.7671 11.7673 13.1997 10 13.1997C8.23267 13.1997 6.79999 11.7671 6.79999 10C6.79999 8.23242 8.23267 6.7998 10 6.7998C11.7673 6.7998 13.2 8.23242 13.2 10Z" transform="translate(2 2)" fill="#77777A"/>
</svg>
