<svg width="24" height="24" viewBox="0 0 24 24" fill="none" xmlns="http://www.w3.org/2000/svg">
<path fill-rule="evenodd" clip-rule="evenodd" d="M6.00001 16C4.90001 16 4.01001 16.9 4.01001 18C4.01001 19.1 4.90001 20 6.00001 20C7.10001 20 8.00001 19.1 8.00001 18C8.00001 16.9 7.10001 16 6.00001 16ZM0 0V2H2L5.6 9.59L4.25 12.04C4.09 12.32 4 12.65 4 13C4 14.1 4.9 15 6 15H18V13H6.42C6.28 13 6.17 12.89 6.17 12.75L6.2 12.63L7.1 11H14.55C15.3 11 15.96 10.59 16.3 9.97L19.88 3.48C19.96 3.34 20 3.17 20 3C20 2.45 19.55 2 19 2H4.21L3.27 0H0ZM16 16C14.9 16 14.01 16.9 14.01 18C14.01 19.1 14.9 20 16 20C17.1 20 18 19.1 18 18C18 16.9 17.1 16 16 16Z" transform="translate(1 2)" fill="#77777A"/>
</svg>
