<svg width="24" height="24" viewBox="0 0 24 24" fill="none" xmlns="http://www.w3.org/2000/svg">
<path fill-rule="evenodd" clip-rule="evenodd" d="M0 10C0 4.47998 4.48 0 10 0C15.52 0 20 4.47998 20 10C20 15.52 15.52 20 10 20C4.48 20 0 15.52 0 10ZM11 14V16H9V14H11ZM10 19C5.03875 19 1 14.9614 1 10C1 5.03857 5.03875 1 10 1C14.9613 1 19 5.03857 19 10C19 14.9614 14.9613 19 10 19ZM6 8C6 5.79004 7.79 4 10 4C12.21 4 14 5.79004 14 8C14 9.28271 13.21 9.97314 12.4408 10.6455C11.711 11.2832 11 11.9048 11 13H9C9 11.1787 9.94212 10.4565 10.7704 9.82178C11.4202 9.32373 12 8.87939 12 8C12 6.8999 11.1 6 10 6C8.9 6 8 6.8999 8 8H6Z" transform="translate(2 2)" fill="#77777A"/>
</svg>
