<svg width="24" height="24" viewBox="0 0 24 24" fill="none" xmlns="http://www.w3.org/2000/svg">
<path d="M10 0C4.486 0 0 4.486 0 10C0 15.514 4.486 20 10 20C15.514 20 20 15.5138 20 10C20 4.486 15.514 0 10 0ZM10 18.9351C5.07311 18.9351 1.06489 14.9267 1.06489 10C1.06489 5.07333 5.07311 1.06489 10 1.06489C14.9267 1.06489 18.9351 5.07333 18.9351 10C18.9351 14.9267 14.9267 18.9351 10 18.9351Z" transform="translate(2 2)" fill="#77777A"/>
<path d="M1.13378 2.268C1.79067 2.268 2.26733 1.78778 2.26711 1.13689C2.28133 0.828889 2.17067 0.520666 1.97178 0.312C1.77667 0.107778 1.50422 0 1.18445 0C0.406667 0 0 0.574889 0 1.14311C0 1.77378 0.498001 2.268 1.13378 2.268Z" transform="translate(10.6655 6.6982)" fill="#77777A"/>
<path d="M2.88644 0H0V1.17422H1.68978L1.702 5.81244H0.0642226V6.98644H4.59933V5.81244H2.87733L2.88644 0Z" transform="translate(9.68994 9.91434)" fill="#77777A"/>
</svg>
