<svg width="24" height="24" viewBox="0 0 24 24" fill="none" xmlns="http://www.w3.org/2000/svg">
<path fill-rule="evenodd" clip-rule="evenodd" d="M3 9.9502C3 13.8198 6.13 16.9502 10 16.9502C12.21 16.9502 14.17 15.9302 15.45 14.3301L18.05 15.8599C16.23 18.3398 13.3 19.9502 9.99001 19.9502C4.47 19.9502 0 15.4702 0 9.9502C0 4.75977 3.94 0.5 9 0V3.02979C5.60999 3.52002 3 6.41992 3 9.9502ZM11 3.02979V0C16.05 0.5 20 4.77002 20 9.9502C20 11.3999 19.68 12.7798 19.12 14.02L16.52 12.4902C16.82 11.7002 17 10.8501 17 9.9502C17 6.41992 14.39 3.52002 11 3.02979Z" transform="translate(2 2.05)" fill="#77777A"/>
</svg>
