<svg width="24" height="24" viewBox="0 0 24 24" fill="none" xmlns="http://www.w3.org/2000/svg">
<path fill-rule="evenodd" clip-rule="evenodd" d="M17.2293 10C17.2293 10.3398 17.1993 10.6602 17.1593 10.98L19.2693 12.6299C19.4594 12.7798 19.5093 13.0498 19.3893 13.27L17.3893 16.73C17.2693 16.9502 17.0093 17.04 16.7794 16.9502L14.2893 15.9502C13.7693 16.3398 13.2094 16.6802 12.5993 16.9302L12.2194 19.5801C12.1893 19.8198 11.9793 20 11.7293 20H7.72931C7.47931 20 7.26935 19.8198 7.23932 19.5801L6.85931 16.9302C6.24933 16.6802 5.68933 16.3501 5.16931 15.9502L2.67932 16.9502C2.45935 17.0298 2.18933 16.9502 2.06934 16.73L0.0693358 13.27C-0.0506593 13.0498 -0.000671486 12.7798 0.189331 12.6299L2.29932 10.98C2.25934 10.6602 2.22931 10.3301 2.22931 10C2.22931 9.66992 2.25934 9.33984 2.29932 9.02002L0.189331 7.37012C-0.000671486 7.22021 -0.060669 6.9502 0.0693358 6.72998L2.06934 3.27002C2.18933 3.0498 2.44934 2.95996 2.67932 3.0498L5.16931 4.0498C5.68933 3.66016 6.24933 3.31982 6.85931 3.06982L7.23932 0.419922C7.26935 0.180176 7.47931 0 7.72931 0H11.7293C11.9793 0 12.1893 0.180176 12.2194 0.419922L12.5993 3.06982C13.2094 3.31982 13.7693 3.6499 14.2893 4.0498L16.7794 3.0498C16.9993 2.97021 17.2693 3.0498 17.3893 3.27002L19.3893 6.72998C19.5093 6.9502 19.4594 7.22021 19.2693 7.37012L17.1593 9.02002C17.1993 9.33984 17.2293 9.66016 17.2293 10ZM6.22937 10C6.22937 11.9302 7.79938 13.5 9.72937 13.5C11.6594 13.5 13.2294 11.9302 13.2294 10C13.2294 8.06982 11.6594 6.5 9.72937 6.5C7.79938 6.5 6.22937 8.06982 6.22937 10Z" transform="translate(2.27051 2)" fill="#77777A"/>
</svg>
