<svg width="24" height="24" viewBox="0 0 24 24" fill="none" xmlns="http://www.w3.org/2000/svg">
<path fill-rule="evenodd" clip-rule="evenodd" d="M10 0C4.48 0 0 4.47998 0 10C0 15.52 4.48 20 10 20C15.52 20 20 15.52 20 10C20 4.47998 15.52 0 10 0ZM10 3C11.66 3 13 4.33984 13 6C13 7.66016 11.66 9 10 9C8.34 9 7 7.66016 7 6C7 4.33984 8.34 3 10 3ZM4 13.98C5.28999 15.9199 7.5 17.1997 10 17.1997C12.5 17.1997 14.71 15.9199 16 13.98C15.97 11.9897 11.99 10.8999 10 10.8999C8 10.8999 4.03 11.9897 4 13.98Z" transform="translate(2 1.99995)" fill="#77777A"/>
</svg>
