<svg width="24" height="24" viewBox="0 0 24 24" fill="none" xmlns="http://www.w3.org/2000/svg">
<path fill-rule="evenodd" clip-rule="evenodd" d="M5 0H14C15.1 0 16 0.899902 16 2V12C16 12.5498 15.78 13.0498 15.42 13.4102L8.82996 20L7.77002 18.9502C7.5 18.6802 7.32996 18.2998 7.32996 17.8901L7.35999 17.5698L8.31006 13H2C0.900024 13 0 12.1001 0 11L0.0100098 10.9199L0 10.9102V9C0 8.74023 0.0500488 8.5 0.140015 8.27002L3.16003 1.22021C3.45996 0.5 4.17004 0 5 0ZM18 12V0H22V12H18Z" transform="translate(1 3)" fill="#77777A"/>
</svg>
