<svg width="24" height="24" viewBox="0 0 24 24" fill="none" xmlns="http://www.w3.org/2000/svg">
<path fill-rule="evenodd" clip-rule="evenodd" d="M20 7C21.1 7 22 7.8999 22 9L21.99 9.08008L22 9.08984V11C22 11.2598 21.95 11.5 21.86 11.73L18.84 18.7798C18.54 19.5 17.83 20 17 20H8C6.90002 20 6 19.1001 6 18V8C6 7.4502 6.21997 6.9502 6.58997 6.58984L13.17 0L14.23 1.0498C14.5 1.31982 14.67 1.7002 14.67 2.10986L14.64 2.43018L13.6899 7H20ZM4 20H0V8H4V20Z" transform="translate(1 1)" fill="#77777A"/>
</svg>
