<svg width="24" height="24" viewBox="0 0 24 24" fill="none" xmlns="http://www.w3.org/2000/svg">
<path fill-rule="evenodd" clip-rule="evenodd" d="M12 24C18.6274 24 24 18.6274 24 12C24 5.37259 18.6274 0 12 0C5.37256 0 0 5.37259 0 12C0 18.6274 5.37256 24 12 24ZM12.9512 12.614V19H10.2549V12.614H8V10.1252H10.2549V8.28979C10.2549 6.15981 11.6196 5 13.6133 5C14.5679 5 15.3887 5.06778 15.6279 5.09805V7.32401L14.2451 7.32462C13.1611 7.32462 12.9512 7.81564 12.9512 8.53621V10.1252H15.5371L15.2002 12.614H12.9512Z" fill="#77777A"/>
</svg>
