<svg width="24" height="24" viewBox="0 0 24 24" fill="none" xmlns="http://www.w3.org/2000/svg">
<path fill-rule="evenodd" clip-rule="evenodd" d="M0.0185993 6.64974C0.0788725 3.04359 3.39414 -0.114438 7.00029 0.00587C8.7282 -0.0744149 10.3525 0.677453 11.6759 1.73354C11.111 2.37535 10.5262 2.99356 9.90126 3.57176C8.31034 2.47231 6.04783 2.15808 4.4569 3.4281C2.18105 5.00211 2.07742 8.71857 4.26655 10.4129C6.39541 12.3447 10.4192 11.3856 11.0074 8.42768C9.67399 8.40767 8.33702 8.42768 7.00362 8.38432C7.00029 7.58886 6.99695 6.7934 7.00029 5.99817C9.22944 5.9915 11.4586 5.98793 13.6911 6.00484C13.8247 7.87641 13.5775 9.86828 12.4277 11.4156C10.6865 13.8654 7.19088 14.5806 4.46357 13.5311C1.7265 12.4884 -0.212011 9.59741 0.0185993 6.64974Z" transform="translate(5 5)" fill="#77777A"/>
</svg>
