<svg width="24" height="24" viewBox="0 0 24 24" fill="none" xmlns="http://www.w3.org/2000/svg">
<path fill-rule="evenodd" clip-rule="evenodd" d="M12 24C18.6274 24 24 18.6274 24 12C24 5.37259 18.6274 0 12 0C5.37256 0 0 5.37259 0 12C0 18.6274 5.37256 24 12 24ZM8.57373 5H14.9263C16.8999 5 18.5 6.59991 18.5 8.57352V14.9265C18.5 15.8742 18.1235 16.7832 17.4531 17.4533C16.7832 18.1235 15.874 18.5 14.9263 18.5H8.57373C6.6001 18.5 5 16.9001 5 14.9265V8.57352C5 6.59991 6.6001 5 8.57373 5ZM14.9263 17.7059C16.4614 17.7059 17.7061 16.4615 17.7061 14.9265V8.57352C17.7061 7.03851 16.4614 5.79413 14.9263 5.79413H8.57373C7.03857 5.79413 5.79395 7.03851 5.79395 8.57352V14.9265C5.79395 16.4615 7.03857 17.7059 8.57373 17.7059H14.9263ZM11.75 8.57352C9.99609 8.57352 8.57373 9.99567 8.57373 11.75C8.57373 13.5043 9.99609 14.9265 11.75 14.9265C13.5044 14.9265 14.9268 13.5043 14.9268 11.75C14.9268 10.9075 14.5918 10.0996 13.9961 9.50388C13.4004 8.90817 12.5928 8.57352 11.75 8.57352ZM11.75 14.1324C10.4346 14.1324 9.36768 13.0657 9.36768 11.75C9.36768 10.4343 10.4346 9.36765 11.75 9.36765C13.0659 9.36765 14.1323 10.4343 14.1323 11.75C14.1323 12.3818 13.8813 12.9878 13.4346 13.4346C12.9878 13.8813 12.3818 14.1324 11.75 14.1324ZM14.5293 8.17648C14.5293 7.73788 14.8848 7.38235 15.3232 7.38235C15.7622 7.38235 16.1177 7.73788 16.1177 8.17648C16.1177 8.61505 15.7622 8.97058 15.3232 8.97058C14.8848 8.97058 14.5293 8.61505 14.5293 8.17648Z" fill="#77777A"/>
</svg>
