<svg width="24" height="24" viewBox="0 0 24 24" fill="none" xmlns="http://www.w3.org/2000/svg">
<path d="M9.92647 -0.25H3.57353C1.46185 -0.25 -0.25 1.46185 -0.25 3.57353V9.92647C-0.25 12.0381 1.46185 13.75 3.57353 13.75H9.92647C10.9405 13.75 11.9131 13.3472 12.6301 12.6301C13.3472 11.9131 13.75 10.9405 13.75 9.92647V3.57353C13.75 1.46185 12.0381 -0.25 9.92647 -0.25ZM12.4559 9.92647C12.4559 11.3234 11.3234 12.4559 9.92647 12.4559H3.57353C2.17657 12.4559 1.04412 11.3234 1.04412 9.92647V3.57353C1.04412 2.17657 2.17657 1.04412 3.57353 1.04412H9.92647C11.3234 1.04412 12.4559 2.17657 12.4559 3.57353V9.92647Z" transform="translate(5 5)" fill="#77777A" stroke="#77777A" stroke-width="0.5"/>
<path d="M3.17647 -0.25C1.28408 -0.25 -0.25 1.28408 -0.25 3.17647C-0.25 5.06886 1.28408 6.60294 3.17647 6.60294C5.06886 6.60294 6.60294 5.06886 6.60294 3.17647C6.60294 2.26771 6.24194 1.39618 5.59935 0.75359C4.95676 0.111002 4.08523 -0.25 3.17647 -0.25ZM3.17647 5.30882C1.9988 5.30882 1.04412 4.35414 1.04412 3.17647C1.04412 1.9988 1.9988 1.04412 3.17647 1.04412C4.35414 1.04412 5.30882 1.9988 5.30882 3.17647C5.30882 3.74201 5.08417 4.28438 4.68427 4.68427C4.28438 5.08417 3.74201 5.30882 3.17647 5.30882Z" transform="translate(8.57373 8.57353)" fill="#77777A" stroke="#77777A" stroke-width="0.5"/>
<path d="M0.5 0.794118C0.5 0.631681 0.631681 0.5 0.794118 0.5C0.956555 0.5 1.08824 0.631681 1.08824 0.794118C1.08824 0.956554 0.956555 1.08824 0.794118 1.08824C0.631681 1.08824 0.5 0.956554 0.5 0.794118Z" transform="translate(14.5293 7.38235)" fill="#77777A" stroke="#77777A"/>
</svg>
