<svg width="24" height="24" viewBox="0 0 24 24" fill="none" xmlns="http://www.w3.org/2000/svg">
<path d="M7 0C3.13425 0 0 3.13367 0 7C0 9.96567 1.84508 12.4985 4.44908 13.5182C4.38783 12.9646 4.33242 12.1153 4.47358 11.5109C4.60075 10.9643 5.29433 8.03133 5.29433 8.03133C5.29433 8.03133 5.08492 7.61192 5.08492 6.99183C5.08492 6.01883 5.649 5.292 6.35133 5.292C6.94808 5.292 7.23683 5.74058 7.23683 6.27783C7.23683 6.87808 6.85475 7.77583 6.657 8.60825C6.49192 9.30475 7.00642 9.8735 7.69358 9.8735C8.93783 9.8735 9.89392 8.56158 9.89392 6.66808C9.89392 4.99217 8.68992 3.82025 6.97025 3.82025C4.97875 3.82025 3.80975 5.31417 3.80975 6.85767C3.80975 7.45908 4.04133 8.10483 4.33067 8.45483C4.38783 8.52425 4.396 8.5855 4.37908 8.65608L4.18483 9.44942C4.15392 9.57775 4.08333 9.60517 3.95033 9.54333C3.07592 9.13617 2.52933 7.85808 2.52933 6.83142C2.52933 4.6235 4.1335 2.59525 7.15458 2.59525C9.583 2.59525 11.4701 4.326 11.4701 6.63833C11.4701 9.051 9.94933 10.9923 7.83767 10.9923C7.12833 10.9923 6.46158 10.6243 6.2335 10.1885L5.79717 11.8527C5.63908 12.4612 5.21267 13.2236 4.92683 13.6879C5.5825 13.8903 6.27842 14 7 14C10.8658 14 14 10.8658 14 7C14 3.13367 10.8658 0 7 0Z" transform="translate(5 5)" fill="#77777A"/>
</svg>
