<svg width="24" height="24" viewBox="0 0 24 24" fill="none" xmlns="http://www.w3.org/2000/svg">
<path fill-rule="evenodd" clip-rule="evenodd" d="M12 24C18.6274 24 24 18.6274 24 12C24 5.37259 18.6274 0 12 0C5.37256 0 0 5.37259 0 12C0 18.6274 5.37256 24 12 24ZM5 12C5 8.13367 8.13428 5 12 5C15.8657 5 19 8.13367 19 12C19 15.8658 15.8657 19 12 19C11.2783 19 10.5825 18.8903 9.92676 18.6879C10.2129 18.2236 10.6392 17.4612 10.7974 16.8528L11.2334 15.1885C11.4614 15.6243 12.1284 15.9923 12.8379 15.9923C14.9492 15.9923 16.4702 14.051 16.4702 11.6383C16.4702 9.326 14.583 7.59525 12.1548 7.59525C9.1333 7.59525 7.5293 9.6235 7.5293 11.8314C7.5293 12.8581 8.07568 14.1362 8.9502 14.5433C9.0835 14.6052 9.15381 14.5777 9.18506 14.4494L9.37891 13.6561C9.396 13.5855 9.3877 13.5242 9.33057 13.4548C9.0415 13.1048 8.80957 12.4591 8.80957 11.8577C8.80957 10.3142 9.97852 8.82025 11.9702 8.82025C13.6899 8.82025 14.894 9.99217 14.894 11.6681C14.894 13.5616 13.938 14.8735 12.6934 14.8735C12.0063 14.8735 11.4917 14.3047 11.6572 13.6082C11.7285 13.3076 11.8242 12.9986 11.917 12.698C12.0811 12.1663 12.2368 11.6613 12.2368 11.2778C12.2368 10.7406 11.9482 10.292 11.3516 10.292C10.6489 10.292 10.085 11.0188 10.085 11.9918C10.085 12.6119 10.2944 13.0313 10.2944 13.0313C10.2944 13.0313 9.60059 15.9643 9.47363 16.5109C9.33252 17.1152 9.3877 17.9646 9.44922 18.5182C6.84521 17.4985 5 14.9657 5 12Z" fill="#77777A"/>
</svg>
