<svg width="24" height="24" viewBox="0 0 24 24" fill="none" xmlns="http://www.w3.org/2000/svg">
<path fill-rule="evenodd" clip-rule="evenodd" d="M12 24C18.6274 24 24 18.6274 24 12C24 5.37259 18.6274 0 12 0C5.37256 0 0 5.37259 0 12C0 18.6274 5.37256 24 12 24ZM16.8594 8.57812C17.3672 8.52344 17.8594 8.38281 18.3125 8.1875C17.9688 8.6875 17.5391 9.13281 17.0469 9.49219C17.0547 9.60156 17.0547 9.71094 17.0547 9.82031C17.0547 13.1562 14.5156 17 9.875 17C8.44531 17 7.11719 16.586 6 15.8672C6.20312 15.8906 6.39844 15.8985 6.60938 15.8985C7.78906 15.8985 8.875 15.5 9.74219 14.8203C8.63281 14.7969 7.70312 14.0703 7.38281 13.0703C7.53906 13.0938 7.69531 13.1094 7.85938 13.1094C8.08594 13.1094 8.3125 13.0781 8.52344 13.0234C7.36719 12.7891 6.5 11.7734 6.5 10.5469V10.5156C6.83594 10.7031 7.22656 10.8203 7.64062 10.8359C6.96094 10.3828 6.51562 9.60938 6.51562 8.73438C6.51562 8.26562 6.64062 7.83594 6.85938 7.46094C8.10156 8.99219 9.96875 9.99219 12.0625 10.1016C12.0234 9.91406 12 9.71875 12 9.52344C12 8.13281 13.125 7 14.5234 7C15.25 7 15.9062 7.30469 16.3672 7.79688C16.9375 7.6875 17.4844 7.47656 17.9688 7.1875C17.7812 7.77344 17.3828 8.26562 16.8594 8.57812Z" fill="#77777A"/>
</svg>
