<svg width="24" height="24" viewBox="0 0 24 24" fill="none" xmlns="http://www.w3.org/2000/svg">
<path fill-rule="evenodd" clip-rule="evenodd" d="M5.55505 6.84118L9.3363 4.85706L5.55505 2.84912V6.84118ZM7.00039 0C7.87539 0 8.72044 0.0119046 9.53555 0.0357143C10.3507 0.0595239 10.9483 0.084656 11.3285 0.111111L11.8988 0.142857C11.904 0.142857 11.9483 0.146825 12.0316 0.154762C12.115 0.162698 12.1749 0.170635 12.2113 0.178571C12.2478 0.186508 12.309 0.198413 12.3949 0.214286C12.4809 0.230159 12.5551 0.251323 12.6176 0.277778C12.6801 0.304233 12.753 0.338624 12.8363 0.380952C12.9197 0.423281 13.0004 0.474867 13.0785 0.535714C13.1566 0.596561 13.2322 0.666666 13.3051 0.746032C13.3363 0.777778 13.3767 0.826719 13.4262 0.892857C13.4757 0.958995 13.5512 1.11376 13.6527 1.35714C13.7543 1.60053 13.8233 1.86772 13.8598 2.15873C13.9014 2.49736 13.934 2.85846 13.9574 3.24206C13.9809 3.62566 13.9952 3.92592 14.0004 4.14286V5.53968C14.0056 6.30688 13.9587 7.07407 13.8598 7.84127C13.8233 8.13228 13.7582 8.3955 13.6645 8.63095C13.5707 8.8664 13.4874 9.0291 13.4145 9.11905L13.3051 9.25397C13.2322 9.33333 13.1566 9.40344 13.0785 9.46429C13.0004 9.52513 12.9197 9.5754 12.8363 9.61508C12.753 9.65476 12.6801 9.68783 12.6176 9.71429C12.5551 9.74074 12.4809 9.7619 12.3949 9.77778C12.309 9.79365 12.2465 9.80556 12.2074 9.81349C12.1684 9.82143 12.1085 9.82936 12.0277 9.8373C11.947 9.84524 11.904 9.84921 11.8988 9.84921C10.5915 9.94974 8.95873 10 7.00039 10C5.92226 9.98942 4.98607 9.97222 4.1918 9.94841C3.39752 9.9246 2.87539 9.90476 2.62539 9.88889L2.24258 9.85714L1.96133 9.8254C1.77383 9.79894 1.6319 9.77249 1.53555 9.74603C1.43919 9.71958 1.30638 9.66402 1.13711 9.57936C0.967838 9.49471 0.820704 9.38624 0.695703 9.25397C0.664453 9.22222 0.624089 9.17328 0.574609 9.10714C0.52513 9.041 0.44961 8.88624 0.348047 8.64286C0.246484 8.39947 0.177474 8.13228 0.141016 7.84127C0.0993488 7.50264 0.066797 7.14154 0.0433594 6.75794C0.0199218 6.37434 0.00559899 6.07408 0.000390632 5.85714V4.46032C-0.00481773 3.69312 0.0420568 2.92593 0.141016 2.15873C0.177474 1.86772 0.242578 1.6045 0.336328 1.36905C0.430079 1.1336 0.513411 0.9709 0.586328 0.880952L0.695703 0.746032C0.76862 0.666666 0.84414 0.596561 0.922266 0.535714C1.00039 0.474867 1.08112 0.423281 1.16445 0.380952C1.24779 0.338624 1.3207 0.304233 1.3832 0.277778C1.4457 0.251323 1.51992 0.230159 1.60586 0.214286C1.6918 0.198413 1.75299 0.186508 1.78945 0.178571C1.82591 0.170635 1.88581 0.162698 1.96914 0.154762C2.05247 0.146825 2.09674 0.142857 2.10195 0.142857C3.40925 0.0476186 5.04205 0 7.00039 0Z" transform="translate(5 7)" fill="#77777A"/>
</svg>
